<svg version="1.1" xmlns="http://www.w3.org/2000/svg" xmlns:xlink="http://www.w3.org/1999/xlink" x="0px" y="0px"
	 viewBox="0 0 24 24" style="enable-background:new 0 0 24 24;" xml:space="preserve">
<style type="text/css">
	.st0{fill:none;stroke:none;}
	.st1{fill:none;}
	.st2{fill-rule:evenodd;clip-rule:evenodd;stroke:none;}
	.st3{stroke:none;}
</style>
<path class="st0" d="M0,0h24v24H0V0z"/>
<g>
	<path class="st3" d="M6.6,10.7L6,9.7l2.6-1.6h1.2v8.4H8.4V9.6L6.6,10.7z M14.4,14.2c0,0.2,0.1,0.4,0.1,0.6c0.1,0.2,0.2,0.3,0.3,0.4
		c0.1,0.1,0.3,0.2,0.5,0.2c0.2,0,0.4,0.1,0.7,0.1c0.5,0,0.8-0.1,1.1-0.4c0.3-0.3,0.4-0.7,0.4-1.3c0-0.5-0.1-0.9-0.4-1.2
		c-0.2-0.3-0.6-0.4-1.1-0.4c-0.3,0-0.6,0.1-0.9,0.2c-0.2,0.1-0.5,0.3-0.7,0.5h-1.2l0.4-4.7h4.7v1.2h-3.6l-0.2,2.2
		c0.2-0.2,0.5-0.3,0.8-0.4c0.3-0.1,0.6-0.1,0.9-0.1c0.5,0,0.9,0.1,1.2,0.2c0.3,0.2,0.6,0.4,0.8,0.6c0.2,0.3,0.4,0.5,0.5,0.9
		c0.1,0.3,0.1,0.7,0.1,1c0,0.5-0.1,1-0.2,1.3c-0.1,0.4-0.3,0.7-0.6,0.9c-0.3,0.2-0.6,0.4-0.9,0.5c-0.3,0.1-0.7,0.2-1.1,0.2
		c-0.9,0-1.6-0.2-2.1-0.6c-0.5-0.4-0.8-1.1-0.8-1.9H14.4z"/>
	<g>
		<path class="st1" d="M18,20c4-4,4-10.5,0-14.5c-2.4-2.4-5.8-3.4-8.9-2.9"/>
		<path class="st2" d="M12.1,4.8L7.8,2.6l4.8-2.1L12.1,4.8z"/>
	</g>
</g>
</svg>
