<?xml version="1.0" encoding="utf-8"?>
<!-- Generator: Adobe Illustrator 23.0.3, SVG Export Plug-In . SVG Version: 6.00 Build 0)  -->
<svg version="1.1" id="Layer_1" xmlns="http://www.w3.org/2000/svg" xmlns:xlink="http://www.w3.org/1999/xlink" x="0px" y="0px"
	 viewBox="0 0 68 69" style="enable-background:new 0 0 68 69;" xml:space="preserve">
<style type="text/css">
	.st0{fill-rule:evenodd;clip-rule:evenodd;fill:#FFFFFF;}
	.st1{fill:none;stroke-width:1.5;}
</style>
<rect x="12.8" width="42.5" height="69"/>
<path class="st0" d="M27.6,45.4v-1.8h12.7v1.8H27.6z M32.8,31.2h-4.9l6.3-5.9l6.3,5.9h-4.8v9.9h-2.8V31.2z"/>
<rect x="0.8" y="0.8" class="st1" width="11.9" height="8.2"/>
<rect x="55.4" y="0.8" class="st1" width="11.9" height="8.2"/>
<rect x="0.8" y="34.6" class="st1" width="11.9" height="8.2"/>
<rect x="55.4" y="34.6" class="st1" width="11.9" height="8.2"/>
<rect x="0.8" y="17.7" class="st1" width="11.9" height="8.2"/>
<rect x="55.4" y="17.7" class="st1" width="11.9" height="8.2"/>
<rect x="0.8" y="51.6" class="st1" width="11.9" height="8.2"/>
<rect x="55.4" y="51.6" class="st1" width="11.9" height="8.2"/>
<rect x="0.8" y="9.2" class="st1" width="11.9" height="8.2"/>
<rect x="55.4" y="9.2" class="st1" width="11.9" height="8.2"/>
<rect x="0.8" y="43.1" class="st1" width="11.9" height="8.2"/>
<rect x="55.4" y="43.1" class="st1" width="11.9" height="8.2"/>
<rect x="0.8" y="26.2" class="st1" width="11.9" height="8.2"/>
<rect x="55.4" y="26.2" class="st1" width="11.9" height="8.2"/>
<rect x="0.8" y="60.1" class="st1" width="11.9" height="8.2"/>
<rect x="55.4" y="60.1" class="st1" width="11.9" height="8.2"/>
</svg>
