<?xml version="1.0" encoding="utf-8"?>
<!-- Generator: Adobe Illustrator 23.0.3, SVG Export Plug-In . SVG Version: 6.00 Build 0)  -->
<svg version="1.1" id="Layer_1" xmlns="http://www.w3.org/2000/svg" xmlns:xlink="http://www.w3.org/1999/xlink" x="0px" y="0px"
	 viewBox="0 0 67.8 73.7" style="enable-background:new 0 0 67.8 73.7;" xml:space="preserve">
<style type="text/css">
	.st0{fill-rule:evenodd;clip-rule:evenodd;}
</style>
<path class="st0" d="M24.1,42.5c0,0.9,0.3,1.2,1.2,1.2h7.5c0.9,0,1.3-0.3,1.3-1.2V39c0-3.2,2.2-4.5,5.3-5.8c0.4-0.2,0.8-0.3,1.2-0.5
	C46.8,30,51,28.2,51,16.8C51,7,46.1,0,33.6,0h-6.3C15,0,9,5.1,9,16.1v1.7c0,0.9,0.4,1.3,1.3,1.3h7.3c0.9,0,1.3-0.4,1.3-1.3
	c0-6.8,2.8-8.9,8.5-8.9h5.7c5.5,0,8,2.5,8,7.9c0,4.9-1.1,6.4-5.6,8.3c-8.7,3.7-11.4,5-11.4,11.1V42.5z M24.6,59.7
	c0,0.9,0.3,1.3,1.2,1.3h7.4c0.9,0,1.3-0.4,1.3-1.3v-7.4c0-0.9-0.4-1.2-1.3-1.2h-7.4c-0.9,0-1.2,0.3-1.2,1.2V59.7z"/>
<path d="M63.1,50.7l-0.4,2.8C61,51.3,58.3,50,54.8,50c-6.5,0-11,4.8-11,12c0,7,4.3,11.7,10.5,11.7c3.6,0,6.6-1.5,8.1-3.8V73h5.3
	V50.7H63.1z M55.8,68.6c-3.8,0-6.3-2.8-6.3-6.8S52,55,55.8,55c3.8,0,6.3,2.7,6.3,6.8S59.5,68.6,55.8,68.6z"/>
<path class="st0" d="M6.5,44.2c0,0.4,0.1,0.5,0.5,0.5h3.2c0.4,0,0.6-0.1,0.6-0.5v-1.5c0-1.4,0.9-1.9,2.3-2.5
	c0.2-0.1,0.3-0.1,0.5-0.2c2.6-1.1,4.5-1.9,4.5-6.8c0-4.2-2.1-7.2-7.5-7.2H7.9C2.6,26,0,28.2,0,32.9v0.7c0,0.4,0.2,0.6,0.6,0.6h3.1
	c0.4,0,0.6-0.2,0.6-0.6c0-2.9,1.2-3.8,3.7-3.8h2.4c2.3,0,3.4,1.1,3.4,3.4c0,2.1-0.5,2.7-2.4,3.5c-3.7,1.6-4.9,2.1-4.9,4.7V44.2z
	 M6.5,51.5C6.5,51.8,6.7,52,7,52h3.1c0.4,0,0.5-0.2,0.5-0.5v-3c0-0.4-0.2-0.5-0.5-0.5H7c-0.4,0-0.5,0.1-0.5,0.5V51.5z"/>
</svg>
