<?xml version="1.0" encoding="utf-8"?>
<!-- Generator: Adobe Illustrator 23.0.3, SVG Export Plug-In . SVG Version: 6.00 Build 0)  -->
<svg version="1.1" id="Layer_1" xmlns="http://www.w3.org/2000/svg" xmlns:xlink="http://www.w3.org/1999/xlink" x="0px" y="0px"
	 viewBox="0 0 90.8 53.3" style="enable-background:new 0 0 90.8 53.3;" xml:space="preserve">
<style type="text/css">
	.st0{}
</style>
<path class="st0" d="M0.7,51.8h9.7l4.3-11.7h19.6l4.2,11.7h9.9l-19-51.3h-9.5L0.7,51.8z M17.4,32.3l3.4-9c1.8-4.5,3.9-10.8,3.8-10.8
	c0.1,0,2.1,6.3,3.7,10.8l3.3,9H17.4z M82.8,16.1l-0.7,4.6c-2.6-3.7-7-5.7-12.5-5.7c-10.5,0-17.7,7.6-17.7,19.1
	c0,11.3,6.9,18.7,16.9,18.7c5.7,0,10.5-2.4,12.9-6.1v5h8.6V16.1H82.8z M71.1,44.7c-6,0-10-4.4-10-10.9S65.1,23,71.1,23
	c6,0,10.1,4.2,10.1,10.8S77.1,44.7,71.1,44.7z"/>
<path d="M0.7,51.8l-0.5-0.2L0,52.3h0.7V51.8z M10.4,51.8v0.5h0.3l0.1-0.3L10.4,51.8z M14.7,40.1v-0.5h-0.3l-0.1,0.3L14.7,40.1z
	 M34.3,40.1l0.5-0.2l-0.1-0.3h-0.4V40.1z M38.5,51.8L38,51.9l0.1,0.3h0.4V51.8z M48.4,51.8v0.5h0.7l-0.3-0.7L48.4,51.8z M29.4,0.5
	l0.5-0.2L29.7,0h-0.3V0.5z M19.8,0.5V0h-0.3l-0.1,0.3L19.8,0.5z M17.4,32.3L17,32.2l-0.3,0.7h0.7V32.3z M20.8,23.3l-0.5-0.2l0,0
	L20.8,23.3z M28.3,23.3l-0.5,0.2l0,0L28.3,23.3z M31.6,32.3v0.5h0.7l-0.2-0.7L31.6,32.3z M0.7,52.3h9.7v-1H0.7V52.3z M10.9,52
	l4.3-11.7l-0.9-0.3L9.9,51.6L10.9,52z M14.7,40.6h19.6v-1H14.7V40.6z M33.8,40.3L38,51.9l0.9-0.3l-4.2-11.7L33.8,40.3z M38.5,52.3
	h9.9v-1h-9.9V52.3z M48.9,51.6l-19-51.3l-0.9,0.3l19,51.3L48.9,51.6z M29.4,0h-9.5v1h9.5V0z M19.4,0.3L0.3,51.6L1.2,52L20.3,0.7
	L19.4,0.3z M17.9,32.5l3.4-9l-0.9-0.3l-3.4,9L17.9,32.5z M21.3,23.5c0.9-2.2,1.9-5,2.6-7.1c0.4-1.1,0.7-2,0.9-2.7
	c0.1-0.3,0.2-0.6,0.3-0.8c0-0.1,0.1-0.2,0.1-0.2c0,0,0-0.1,0-0.1c0,0,0-0.1,0-0.1c0,0,0-0.1,0-0.2c0-0.1-0.2-0.3-0.5-0.3v1
	c-0.3,0-0.4-0.2-0.5-0.3c0-0.1,0-0.2,0-0.2c0,0,0-0.1,0-0.1c0,0,0,0,0,0c0,0,0,0.1-0.1,0.2c-0.1,0.2-0.1,0.4-0.2,0.8
	c-0.2,0.7-0.5,1.6-0.9,2.7c-0.7,2.1-1.7,4.8-2.6,7.1L21.3,23.5z M24.6,13c-0.2,0-0.3-0.1-0.3-0.1c0,0-0.1-0.1-0.1-0.1c0,0,0,0,0,0
	c0,0,0,0,0,0c0,0,0,0.1,0.1,0.2c0.1,0.2,0.2,0.4,0.3,0.8c0.2,0.7,0.5,1.6,0.9,2.7c0.7,2.1,1.6,4.8,2.4,7.1l0.9-0.3
	c-0.8-2.2-1.7-4.9-2.4-7.1c-0.4-1.1-0.7-2-0.9-2.7c-0.1-0.3-0.2-0.6-0.3-0.8c0-0.1-0.1-0.2-0.1-0.2c0,0,0-0.1,0-0.1c0,0,0,0,0-0.1
	c0,0,0,0-0.1-0.1c0,0-0.1-0.1-0.3-0.1V13z M27.9,23.5l3.3,9l0.9-0.3l-3.3-9L27.9,23.5z M31.6,31.8H17.4v1h14.2V31.8z M82.8,16.1
	v-0.5h-0.4L82.3,16L82.8,16.1z M82.1,20.7l-0.4,0.3l0.7,1l0.2-1.2L82.1,20.7z M81.7,46.7h0.5v-1.7l-0.9,1.4L81.7,46.7z M81.7,51.8
	h-0.5v0.5h0.5V51.8z M90.3,51.8v0.5h0.5v-0.5H90.3z M90.3,16.1h0.5v-0.5h-0.5V16.1z M82.3,16l-0.7,4.6l1,0.2l0.7-4.6L82.3,16z
	 M82.5,20.4c-2.7-3.8-7.3-5.9-12.9-5.9v1c5.3,0,9.6,2,12.1,5.5L82.5,20.4z M69.6,14.5c-5.4,0-9.9,1.9-13.1,5.4
	c-3.2,3.4-5,8.4-5,14.2h1c0-5.7,1.8-10.3,4.8-13.5c3-3.2,7.3-5.1,12.4-5.1V14.5z M51.4,34.1c0,5.7,1.8,10.5,4.8,13.9
	c3.1,3.4,7.4,5.3,12.6,5.3v-1c-4.9,0-9-1.8-11.8-5c-2.9-3.2-4.6-7.7-4.6-13.3H51.4z M68.8,53.3c5.8,0,10.8-2.5,13.3-6.3l-0.8-0.5
	c-2.3,3.5-6.9,5.9-12.5,5.9V53.3z M81.2,46.7v5h1v-5H81.2z M81.7,52.3h8.6v-1h-8.6V52.3z M90.8,51.8V16.1h-1v35.7H90.8z M90.3,15.6
	h-7.4v1h7.4V15.6z M71.1,44.2c-2.9,0-5.2-1-6.9-2.8c-1.7-1.8-2.6-4.4-2.6-7.5h-1c0,3.3,1,6.2,2.9,8.2c1.9,2,4.5,3.2,7.6,3.2V44.2z
	 M61.6,33.9c0-3.1,1-5.7,2.6-7.5c1.7-1.8,4-2.8,7-2.8v-1c-3.2,0-5.8,1.1-7.7,3.2c-1.9,2-2.9,4.9-2.9,8.2H61.6z M71.1,23.5
	c2.9,0,5.3,1,6.9,2.8c1.7,1.8,2.7,4.3,2.7,7.5h1c0-3.4-1.1-6.2-2.9-8.2c-1.9-2-4.5-3.1-7.7-3.1V23.5z M80.7,33.8
	c0,3.2-1,5.8-2.7,7.6c-1.7,1.8-4.1,2.9-7,2.9v1c3.1,0,5.8-1.1,7.7-3.2c1.9-2,3-4.9,3-8.3H80.7z"/>
</svg>
