

<svg version="1.1" xmlns="http://www.w3.org/2000/svg" xmlns:xlink="http://www.w3.org/1999/xlink" x="0px" y="0px"
	 viewBox="0 0 24 24" style="enable-background:new 0 0 24 24;" xml:space="preserve">
<style type="text/css">
	.st0{fill:none;stroke:none;}
	.st1{fill-rule:evenodd;clip-rule:evenodd;stroke:none;}
</style>
<path class="st0" d="M0,0h24v24H0V0z"/>
<path class="st1" d="M3.6,10.9c0-4,3.3-7.3,7.3-7.3s7.3,3.3,7.3,7.3s-3.3,7.3-7.3,7.3S3.6,14.9,3.6,10.9z M21.6,19.5l-3.8-3.8
	c1-1.4,1.5-3,1.5-4.9c0-4.7-3.8-8.5-8.5-8.5s-8.5,3.8-8.5,8.5s3.8,8.5,8.5,8.5c1.8,0,3.5-0.6,4.9-1.5l3.8,3.8L21.6,19.5z"/>
</svg>
