

<svg version="1.1" xmlns="http://www.w3.org/2000/svg" xmlns:xlink="http://www.w3.org/1999/xlink" x="0px" y="0px"
	 viewBox="0 0 24 24" style="enable-background:new 0 0 24 24;" xml:space="preserve">
<style type="text/css">
	.st0{fill:none;stroke:none;}
	.st1{fill-rule:evenodd;clip-rule:evenodd;}
</style>
<path class="st0" d="M0,0h24v24H0C0,24,0,0,0,0z"/>
<path class="st1" d="M19.6,12.2H16c0-0.1,0-0.1,0-0.2c0-2.2-1.8-4-4-4V4.4c4.2,0,7.6,3.4,7.6,7.6C19.6,12.1,19.6,12.1,19.6,12.2z
	 M12,2C6.5,2,2,6.5,2,12c0,5.5,4.5,10,10,10c5.5,0,10-4.5,10-10C22,6.5,17.5,2,12,2z"/>
</svg>
